<svg width="29" height="29" viewBox="0 0 29 29" fill="none" xmlns="http://www.w3.org/2000/svg">
<path d="M17.5304 19.524C17.5304 19.524 15.2624 21.6543 12.1469 20.5544C12.1469 20.5568 15.4022 23.8346 17.5304 19.524Z" fill="#3A86FF"/>
<path d="M20.2834 11.551C20.997 11.3586 21.7482 11.3969 22.4414 11.6609C22.5314 11.6921 22.6194 11.7297 22.7048 11.7732C22.7919 11.8147 22.8812 11.8525 22.966 11.8952C23.0507 11.938 23.1332 11.9953 23.2157 12.0466L23.3405 12.126L23.4551 12.2151C23.5329 12.2761 23.6131 12.3372 23.691 12.3994C23.7689 12.4617 23.8365 12.5361 23.9098 12.6057C24.0561 12.7465 24.1928 12.8982 24.3187 13.0599C24.8348 13.7232 25.1763 14.5207 25.3084 15.3708C25.3175 15.4233 25.3278 15.477 25.3359 15.5307L25.3496 15.6918L25.3725 16.0153C25.3777 16.1239 25.3777 16.2327 25.3725 16.3413C25.3725 16.4499 25.3725 16.5586 25.3599 16.6672C25.2807 17.5404 24.995 18.378 24.5295 19.1014C24.4699 19.1906 24.4046 19.2748 24.3428 19.3615C24.282 19.4472 24.2162 19.5287 24.1458 19.6056C24.0095 19.7665 23.8629 19.917 23.7071 20.0561C23.6292 20.1244 23.5536 20.1977 23.4722 20.2612L23.2202 20.4431C23.179 20.4724 23.1366 20.5041 23.0943 20.5322L22.9614 20.6091L22.6945 20.7605C22.604 20.8069 22.5089 20.8435 22.4173 20.8825C22.3255 20.9251 22.2314 20.9618 22.1355 20.9924C21.9457 21.0565 21.7521 21.1071 21.5559 21.1438C20.7886 21.2949 19.9972 21.2228 19.2651 20.935C18.5731 20.664 17.9742 20.1763 17.5469 19.536C17.8565 19.6851 18.1777 19.8052 18.5068 19.8949C18.663 19.9376 18.8213 19.971 18.981 19.995C19.1366 20.0201 19.2934 20.0356 19.4506 20.0414C19.6033 20.05 19.7562 20.05 19.9088 20.0414C20.0591 20.0328 20.2087 20.0137 20.3567 19.9841C20.5021 19.9474 20.6476 19.9328 20.7874 19.8815L20.9958 19.818C21.0634 19.7887 21.131 19.7619 21.1974 19.735C21.4617 19.6273 21.715 19.4911 21.9534 19.3285C22.4098 18.9996 22.7993 18.5761 23.0988 18.0833L23.1996 17.8965L23.2512 17.8038C23.2672 17.7708 23.2787 17.7378 23.2936 17.7049L23.3806 17.5108C23.4092 17.4461 23.4264 17.3753 23.4516 17.3081L23.4871 17.208C23.5009 17.1751 23.5112 17.1407 23.5181 17.1055C23.5352 17.0359 23.5513 16.9663 23.5707 16.898C23.5788 16.8626 23.5902 16.8284 23.5971 16.793L23.6131 16.6868C23.6246 16.616 23.636 16.5452 23.6486 16.4731C23.6612 16.4011 23.6601 16.3291 23.667 16.2571L23.6761 16.1484C23.6815 16.1125 23.6834 16.0761 23.6819 16.0398V15.7114C23.6819 15.676 23.675 15.6393 23.6715 15.6027L23.6521 15.3842C23.6444 15.3116 23.6334 15.2395 23.6189 15.1681C23.604 15.0961 23.5971 15.0216 23.5788 14.9508L23.5226 14.7372L23.4963 14.6285L23.4585 14.5236C23.4344 14.454 23.4092 14.3844 23.3863 14.3124C23.3634 14.2403 23.3268 14.1756 23.297 14.1061C23.2692 14.0361 23.2375 13.968 23.2019 13.9022C23.1252 13.774 23.0633 13.6312 22.9728 13.5091C22.9293 13.4456 22.8904 13.3797 22.8445 13.3174C22.7987 13.2552 22.7506 13.1954 22.7037 13.1355L22.6326 13.0428L22.5536 12.9585C22.5009 12.9012 22.4482 12.845 22.3955 12.7852C22.3428 12.7254 22.281 12.679 22.2237 12.624C22.1668 12.5687 22.1071 12.5165 22.045 12.4678C21.9213 12.3654 21.792 12.2708 21.6579 12.1846L21.4517 12.0503C21.3795 12.0137 21.3074 11.9746 21.2329 11.9355C21.0837 11.8572 20.9308 11.7871 20.7748 11.7256C20.6955 11.6913 20.6144 11.662 20.5319 11.6377C20.4506 11.6108 20.3681 11.5815 20.2834 11.551Z" fill="#FDBC0B"/>
<path d="M8.44566 10.939C8.44566 10.939 4.80663 11.4676 3.91778 14.2924C3.04954 17.0514 4.14686 19.853 6.75157 21.0518C9.59109 22.3568 14.5645 20.6856 17.4636 15.551L18.2517 16.5557L19.3169 12.7054L16.1166 14.7087L17.1567 15.2641C17.1567 15.2641 12.4237 21.4461 7.32314 19.4245C6.72001 19.1601 6.20813 18.7038 5.85738 18.1178C5.50662 17.5318 5.33408 16.8448 5.36331 16.1504C5.40798 13.6393 7.26587 12.8238 8.96912 12.5345L8.89352 12.3538" fill="#9635F0"/>
<path d="M18.3139 10.0155C18.3139 10.0155 16.6576 6.76219 12.6131 7.31275C8.56859 7.86332 6.92719 11.5561 9.95571 13.4007C9.95571 13.4007 8.11156 9.67128 12.9441 8.41877C15.9956 7.62893 18.3139 10.0155 18.3139 10.0155Z" fill="#FF006E"/>
</svg>
