<svg width="16" height="16" viewBox="0 0 16 16" fill="none" xmlns="http://www.w3.org/2000/svg">
<path fill-rule="evenodd" clip-rule="evenodd" d="M11.4343 4.26763C11.6058 4.09681 11.8372 4.00067 12.0787 4C12.3201 3.99933 12.552 4.09419 12.7244 4.26405C12.8968 4.43392 12.9958 4.66515 12.9999 4.90776C13.004 5.15036 12.9129 5.38485 12.7464 5.56052L7.85587 11.7048C7.77182 11.7958 7.67038 11.8689 7.55761 11.9195C7.44483 11.9702 7.32305 11.9975 7.19954 11.9998C7.07602 12.0021 6.95332 11.9794 6.83876 11.9329C6.72419 11.8865 6.62013 11.8173 6.53278 11.7295L3.29244 8.47138C3.20217 8.38683 3.12976 8.28488 3.07954 8.1716C3.02932 8.05832 3.00232 7.93603 3.00014 7.81203C2.99797 7.68803 3.02066 7.56487 3.06687 7.44987C3.11308 7.33488 3.18187 7.23042 3.26911 7.14273C3.35636 7.05504 3.46029 6.98591 3.5747 6.93946C3.68911 6.89301 3.81165 6.8702 3.93502 6.87239C4.05839 6.87458 4.18006 6.90172 4.29277 6.95219C4.40547 7.00267 4.50691 7.07544 4.59103 7.16617L7.15635 9.74334L11.4111 4.29472C11.4187 4.28518 11.4268 4.27613 11.4356 4.26763H11.4343Z" fill="#5BD77E"/>
</svg>
