<svg width="24" height="17" viewBox="0 0 24 17" fill="none" xmlns="http://www.w3.org/2000/svg">
<rect opacity="0.15" y="0.5" width="24" height="16" rx="4" fill="white"/>
<path opacity="0.6" d="M16.6664 4.5C16.4896 4.5 16.3199 4.5702 16.1949 4.69516C16.0698 4.82012 15.9995 4.9896 15.9995 5.16632V7.83158C15.9995 8.0083 15.9293 8.17777 15.8042 8.30273C15.6792 8.42769 15.5095 8.49789 15.3327 8.49789H8.93734L9.80428 7.63835C9.92985 7.51288 10.0004 7.3427 10.0004 7.16526C10.0004 6.98782 9.92985 6.81765 9.80428 6.69218C9.6787 6.56671 9.50839 6.49622 9.3308 6.49622C9.15321 6.49622 8.98289 6.56671 8.85732 6.69218L6.85669 8.69112C6.79598 8.75449 6.74839 8.82922 6.71665 8.91101C6.64995 9.07323 6.64995 9.25519 6.71665 9.41741C6.74839 9.4992 6.79598 9.57392 6.85669 9.63729L8.85732 11.6362C8.91931 11.6987 8.99307 11.7483 9.07433 11.7821C9.1556 11.8159 9.24276 11.8333 9.3308 11.8333C9.41883 11.8333 9.506 11.8159 9.58726 11.7821C9.66853 11.7483 9.74228 11.6987 9.80428 11.6362C9.86678 11.5743 9.9164 11.5006 9.95025 11.4194C9.98411 11.3382 10.0015 11.2511 10.0015 11.1632C10.0015 11.0752 9.98411 10.9881 9.95025 10.9069C9.9164 10.8257 9.86678 10.752 9.80428 10.6901L8.93734 9.83052H15.3327C15.8633 9.83052 16.3721 9.61992 16.7473 9.24505C17.1225 8.87017 17.3333 8.36173 17.3333 7.83158V5.16632C17.3333 4.9896 17.263 4.82012 17.138 4.69516C17.0129 4.5702 16.8433 4.5 16.6664 4.5Z" fill="white"/>
</svg>
