<svg width="16" height="17" viewBox="0 0 16 17" fill="none" xmlns="http://www.w3.org/2000/svg">
<path d="M14.1133 10.7666L10.1733 4.19997C9.65332 3.3333 8.86666 2.83997 7.99999 2.83997C7.13332 2.83997 6.34666 3.3333 5.82666 4.1933L1.88666 10.7666C1.59332 11.2533 1.44666 11.76 1.44666 12.24C1.44666 12.62 1.53999 12.9933 1.72666 13.32C2.15332 14.0666 2.97999 14.5 3.99999 14.5H12C13.02 14.5 13.8467 14.0666 14.2733 13.32C14.46 12.9933 14.5533 12.64 14.5533 12.2666C14.56 11.7733 14.4133 11.26 14.1133 10.7666ZM7.99999 6.1333C8.56666 6.1333 9.03332 6.59997 9.03332 7.16663C9.03332 7.7333 8.57332 8.19997 7.99999 8.19997C7.43332 8.19997 6.96666 7.7333 6.96666 7.16663C6.96666 6.5933 7.42666 6.1333 7.99999 6.1333ZM9.12666 11.7733C9.10666 11.8 8.59332 12.3866 7.74666 12.3866H7.64666C7.30666 12.3666 7.02666 12.22 6.85999 11.9666C6.65332 11.6533 6.61999 11.2266 6.77999 10.7533L7.05332 9.93997C7.20666 9.48663 7.05999 9.4133 6.97999 9.3733L6.88666 9.35997C6.71999 9.35997 6.48666 9.45997 6.41332 9.49997C6.34666 9.5333 6.25999 9.51997 6.20666 9.4533C6.15999 9.38663 6.15999 9.29997 6.21332 9.23997C6.23332 9.2133 6.79332 8.57997 7.69332 8.6333C8.03332 8.6533 8.31332 8.79997 8.47999 9.0533C8.69332 9.36663 8.71999 9.7933 8.55999 10.2733L8.28666 11.0866C8.13332 11.54 8.27999 11.6133 8.35999 11.6533L8.45332 11.6666C8.61999 11.6666 8.85332 11.5666 8.92666 11.5333C8.99999 11.4933 9.07999 11.5133 9.13332 11.58C9.17999 11.6266 9.17999 11.7133 9.12666 11.7733Z" fill="#F5C044"/>
</svg>
