<svg width="17" height="16" viewBox="0 0 17 16" fill="none" xmlns="http://www.w3.org/2000/svg">
<path d="M11.1963 4.98387C10.8162 2.64335 9.91967 1 8.87631 1C7.83296 1 6.9364 2.64335 6.55629 4.98387H11.1963ZM6.35967 7.5C6.35967 8.08185 6.39113 8.64012 6.44618 9.17742H11.3038C11.3589 8.64012 11.3903 8.08185 11.3903 7.5C11.3903 6.91815 11.3589 6.35988 11.3038 5.82258H6.44618C6.39113 6.35988 6.35967 6.91815 6.35967 7.5ZM14.8717 4.98387C14.1219 3.20423 12.6041 1.82823 10.7297 1.27258C11.3694 2.15847 11.8098 3.49254 12.0405 4.98387H14.8717ZM7.02029 1.27258C5.14854 1.82823 3.62808 3.20423 2.88095 4.98387H5.71216C5.94024 3.49254 6.38065 2.15847 7.02029 1.27258ZM15.1522 5.82258H12.1453C12.2004 6.37298 12.2318 6.93649 12.2318 7.5C12.2318 8.06351 12.2004 8.62702 12.1453 9.17742H15.1496C15.2937 8.64012 15.375 8.08185 15.375 7.5C15.375 6.91815 15.2937 6.35988 15.1522 5.82258ZM5.5208 7.5C5.5208 6.93649 5.55225 6.37298 5.60731 5.82258H2.60045C2.45889 6.35988 2.375 6.91815 2.375 7.5C2.375 8.08185 2.45889 8.64012 2.60045 9.17742H5.60468C5.55225 8.62702 5.5208 8.06351 5.5208 7.5ZM6.55629 10.0161C6.9364 12.3567 7.83296 14 8.87631 14C9.91967 14 10.8162 12.3567 11.1963 10.0161H6.55629ZM10.7323 13.7274C12.6041 13.1718 14.1245 11.7958 14.8743 10.0161H12.0431C11.8124 11.5075 11.372 12.8415 10.7323 13.7274ZM2.88095 10.0161C3.6307 11.7958 5.14854 13.1718 7.02291 13.7274C6.38327 12.8415 5.94286 11.5075 5.71216 10.0161H2.88095Z" fill="#555555"/>
</svg>
