<svg width="16" height="17" viewBox="0 0 16 17" fill="none" xmlns="http://www.w3.org/2000/svg">
<path d="M14.537 7.19474H14V7.16707H8.00004V9.83374H11.7677C11.218 11.3861 9.74104 12.5004 8.00004 12.5004C5.79104 12.5004 4.00004 10.7094 4.00004 8.50041C4.00004 6.29141 5.79104 4.50041 8.00004 4.50041C9.01971 4.50041 9.94737 4.88507 10.6537 5.51341L12.5394 3.62774C11.3487 2.51807 9.75604 1.83374 8.00004 1.83374C4.31837 1.83374 1.33337 4.81874 1.33337 8.50041C1.33337 12.1821 4.31837 15.1671 8.00004 15.1671C11.6817 15.1671 14.6667 12.1821 14.6667 8.50041C14.6667 8.05341 14.6207 7.61707 14.537 7.19474Z" fill="#FFC107"/>
<path d="M2.10217 5.39741L4.29251 7.00374C4.88517 5.53641 6.32051 4.50041 8.00017 4.50041C9.01984 4.50041 9.94751 4.88507 10.6538 5.51341L12.5395 3.62774C11.3488 2.51807 9.75617 1.83374 8.00017 1.83374C5.43951 1.83374 3.21884 3.27941 2.10217 5.39741Z" fill="#FF3D00"/>
<path d="M7.99982 15.1665C9.72182 15.1665 11.2865 14.5075 12.4695 13.4359L10.4062 11.6899C9.71433 12.216 8.86897 12.5006 7.99982 12.4999C6.26582 12.4999 4.79349 11.3942 4.23882 9.8512L2.06482 11.5262C3.16815 13.6852 5.40882 15.1665 7.99982 15.1665Z" fill="#4CAF50"/>
<path d="M14.537 7.19466H14V7.16699H8V9.83366H11.7677C11.5047 10.5725 11.0311 11.2181 10.4053 11.6907L10.4063 11.69L12.4697 13.436C12.3237 13.5687 14.6667 11.8337 14.6667 8.50033C14.6667 8.05333 14.6207 7.61699 14.537 7.19466Z" fill="#1976D2"/>
</svg>
