<svg width="22" height="22" viewBox="0 0 22 22" fill="none" xmlns="http://www.w3.org/2000/svg">
<path d="M5.53438 16.6719C5.3625 16.6375 5.225 16.6032 5.05312 16.5344C4.88125 16.4657 4.74375 16.4313 4.60625 16.3625C4.29687 16.225 4.02187 16.0532 3.74687 15.8469C3.19687 15.4688 2.75 14.9532 2.40625 14.3344C2.0625 13.75 1.85625 13.0625 1.82188 12.4094C1.7875 12.0657 1.82187 11.7563 1.85625 11.4125C1.89062 11.2407 1.925 11.1032 1.95937 10.9313C1.99375 10.7594 2.0625 10.6219 2.09687 10.45L2.13125 10.9313C2.13125 11.1032 2.16562 11.2407 2.2 11.4125C2.23438 11.7219 2.30313 12.0313 2.37188 12.3063C2.50937 12.8907 2.71563 13.4407 3.025 13.9563C3.33438 14.4719 3.67812 14.9532 4.125 15.4C4.33125 15.6063 4.57188 15.8125 4.8125 16.0188C4.91563 16.1219 5.05312 16.225 5.19063 16.3282L5.53438 16.6719ZM5.43125 17.9094C5.32812 17.9782 5.19062 18.0125 5.05312 18.0469C4.91563 18.0813 4.8125 18.1157 4.675 18.1157C4.43438 18.15 4.15937 18.1844 3.88438 18.15C3.36875 18.1157 2.81875 17.9782 2.37188 17.7375C1.89062 17.4969 1.47812 17.1188 1.20312 16.6719C1.06563 16.4657 0.928125 16.225 0.825 15.9844C0.790625 15.8813 0.75625 15.7438 0.721875 15.6063C0.721875 15.5032 0.6875 15.4 0.6875 15.2625C0.790625 15.3657 0.859375 15.4344 0.928125 15.5375C1.03125 15.6407 1.1 15.7438 1.16875 15.8125C1.34063 15.9844 1.47813 16.1563 1.65 16.2938C1.99375 16.6032 2.3375 16.8782 2.75 17.0844C3.12812 17.2907 3.575 17.4625 3.9875 17.6C4.19375 17.6688 4.43438 17.7032 4.675 17.7719C4.77813 17.8063 4.91563 17.8063 5.01875 17.8407C5.19063 17.875 5.29375 17.875 5.43125 17.9094ZM13.2 1.20317C13.3719 1.23755 13.5094 1.3063 13.6812 1.37505C13.8531 1.4438 13.9906 1.51255 14.1281 1.5813C14.4375 1.75317 14.7125 1.92505 14.9875 2.1313C15.5375 2.5438 15.9844 3.0938 16.2938 3.71255C16.6031 4.3313 16.775 5.0188 16.775 5.67192C16.775 6.01567 16.7406 6.32505 16.6719 6.6688C16.6375 6.84067 16.6031 6.97817 16.5344 7.15005C16.4656 7.32192 16.4312 7.45942 16.3625 7.59692L16.3281 7.11567C16.3281 6.9438 16.3281 6.8063 16.2938 6.63442L16.1906 5.7063C16.0875 5.12192 15.8813 4.53755 15.6063 3.98755C15.3313 3.43755 14.9875 2.9563 14.575 2.50942C14.3688 2.2688 14.1281 2.06255 13.9219 1.82192C13.8188 1.7188 13.6813 1.61567 13.5438 1.51255L13.2 1.20317ZM16.1906 1.06567C16.3281 1.10005 16.4312 1.13442 16.5344 1.20317C16.6375 1.23755 16.775 1.3063 16.8781 1.37505C17.0844 1.51255 17.2906 1.65005 17.4969 1.82192C17.875 2.16567 18.1844 2.57817 18.3563 3.05942C18.5625 3.54067 18.6313 4.0563 18.5625 4.57192C18.5281 4.81255 18.4594 5.05317 18.3906 5.2938C18.3563 5.39692 18.2875 5.53442 18.2531 5.63755C18.1844 5.74067 18.15 5.8438 18.0469 5.94692V5.25942C18.0469 5.0188 18.0125 4.81255 18.0125 4.6063C17.9438 4.15942 17.875 3.74692 17.7031 3.3688C17.5312 2.9563 17.325 2.61255 17.0844 2.23442C16.9469 2.06255 16.8094 1.8563 16.6719 1.68442C16.6031 1.5813 16.5344 1.51255 16.4312 1.40942C16.3625 1.23755 16.2594 1.13442 16.1906 1.06567Z" fill="#42ADE2"/>
<path d="M3.4375 6.18756C2.75 6.49693 2.50938 7.32193 2.81875 8.00943L7.15 17.0501L9.55625 15.9157L5.225 6.84068C4.91563 6.15318 4.125 5.84381 3.4375 6.18756ZM14.8156 13.3719L17.3594 12.1688L12.4094 1.85631C12.0656 1.16881 11.2406 0.859434 10.5188 1.20318C9.83125 1.54693 9.52188 2.37193 9.86563 3.09381L14.8156 13.3719Z" fill="#FFE0BA"/>
<path d="M10.5531 1.16875C10.4844 1.20313 10.4156 1.2375 10.3469 1.30625C11 1.13438 11.6875 1.44375 11.9969 2.0625L16.9469 12.375L17.3938 12.1688L12.4438 1.85625C12.1 1.13438 11.275 0.825 10.5531 1.16875Z" fill="#EEBA96"/>
<path d="M9.55625 15.8812L12.2031 14.6093L7.15 4.09057C6.80625 3.3687 5.9125 3.02495 5.19062 3.3687C4.46875 3.71245 4.15937 4.6062 4.50312 5.32807L9.55625 15.8812Z" fill="#FFE0BA"/>
<path d="M5.19063 3.40313C5.12188 3.43751 5.05313 3.47188 4.98438 3.54063C5.6375 3.36876 6.39375 3.67813 6.70313 4.33126L9.83125 10.8969L10.5875 11.3438L7.15 4.12501C6.80625 3.36876 5.94688 3.05938 5.19063 3.40313Z" fill="#EEBA96"/>
<path d="M11.7906 13.7844L14.4375 12.5125L9.38437 1.99377C9.04062 1.27189 8.14687 0.928141 7.425 1.30627C6.70312 1.65002 6.39375 2.54377 6.7375 3.26564L11.7906 13.7844Z" fill="#FFE0BA"/>
<path d="M7.425 1.27191C7.35625 1.30628 7.2875 1.37503 7.21875 1.40941C7.87187 1.23753 8.62812 1.54691 8.9375 2.20003L12.4781 9.62503L13.2344 10.0719L9.38437 1.99378C9.04062 1.23753 8.14687 0.928157 7.425 1.27191ZM3.4375 6.18753C3.36875 6.22191 3.3 6.25628 3.23125 6.32503C3.85 6.15316 4.50312 6.46253 4.77812 7.08128L7.35625 12.4782L8.1125 12.925L5.225 6.87503C4.91562 6.15316 4.125 5.84378 3.4375 6.18753Z" fill="#EEBA96"/>
<path d="M20.9 5.15626C19.9719 4.43438 18.4594 5.22501 17.7031 7.70001C17.1875 9.41875 17.1188 9.93438 16.0188 10.45L15.4 9.17813C15.4 9.17813 5.6375 13.8875 6.01563 14.6438C6.01563 14.6438 7.18438 18.2875 9.17813 19.9719C12.1344 22.5156 19.0438 19.8 19.3531 13.2344C19.525 9.41875 21.8969 5.94688 20.9 5.15626Z" fill="#FFE0BA"/>
<path d="M20.9 5.15627C20.7281 5.01877 20.5219 4.95002 20.3156 4.91565C20.35 4.95002 20.4187 4.95002 20.4531 4.9844C21.4844 5.77502 20.4187 7.5969 19.8344 9.2469C19.3531 10.5531 18.9406 11.8938 19.0094 13.2C19.2844 18.9063 13.5437 21.6219 10.1062 20.5907C13.475 22 19.7312 19.3188 19.4562 13.3719C19.3875 12.0657 19.7656 10.7938 20.2812 9.41877C20.8312 7.76877 21.8969 5.9469 20.9 5.15627Z" fill="#EEBA96"/>
<path d="M16.3281 10.3125C14.1969 10.5531 11.0688 13.6125 13.2688 16.9469C11.6531 13.5781 14.3 11.3094 15.9844 10.5188C16.1563 10.3813 16.3281 10.3125 16.3281 10.3125Z" fill="#EEBA96"/>
</svg>
