<svg width="254" height="57" viewBox="0 0 254 57" fill="none" xmlns="http://www.w3.org/2000/svg">
<path d="M116.53 47.524C116.53 47.524 114.262 49.6543 111.147 48.5544C111.147 48.5568 114.402 51.8346 116.53 47.524Z" fill="#3A86FF"/>
<path d="M119.283 39.551C119.997 39.3586 120.748 39.3969 121.441 39.6609C121.531 39.6921 121.619 39.7297 121.705 39.7732C121.792 39.8147 121.881 39.8525 121.966 39.8952C122.051 39.938 122.133 39.9953 122.216 40.0466L122.341 40.126L122.455 40.2151C122.533 40.2761 122.613 40.3372 122.691 40.3994C122.769 40.4617 122.836 40.5361 122.91 40.6057C123.056 40.7465 123.193 40.8982 123.319 41.0599C123.835 41.7232 124.176 42.5207 124.308 43.3708C124.318 43.4233 124.328 43.477 124.336 43.5307L124.35 43.6918L124.373 44.0153C124.378 44.1239 124.378 44.2327 124.373 44.3413C124.373 44.4499 124.373 44.5586 124.36 44.6672C124.281 45.5404 123.995 46.378 123.529 47.1014C123.47 47.1906 123.405 47.2748 123.343 47.3615C123.282 47.4472 123.216 47.5287 123.146 47.6056C123.01 47.7665 122.863 47.917 122.707 48.0561C122.629 48.1244 122.554 48.1977 122.472 48.2612L122.22 48.4431C122.179 48.4724 122.137 48.5041 122.094 48.5322L121.961 48.6091L121.694 48.7605C121.604 48.8069 121.509 48.8435 121.417 48.8825C121.326 48.9251 121.231 48.9618 121.136 48.9924C120.946 49.0565 120.752 49.1071 120.556 49.1438C119.789 49.2949 118.997 49.2228 118.265 48.935C117.573 48.664 116.974 48.1763 116.547 47.536C116.857 47.6851 117.178 47.8052 117.507 47.8949C117.663 47.9376 117.821 47.971 117.981 47.995C118.137 48.0201 118.293 48.0356 118.451 48.0414C118.603 48.05 118.756 48.05 118.909 48.0414C119.059 48.0328 119.209 48.0137 119.357 47.9841C119.502 47.9474 119.648 47.9328 119.787 47.8815L119.996 47.818C120.063 47.7887 120.131 47.7619 120.197 47.735C120.462 47.6273 120.715 47.4911 120.953 47.3285C121.41 46.9996 121.799 46.5761 122.099 46.0833L122.2 45.8965L122.251 45.8038C122.267 45.7708 122.279 45.7378 122.294 45.7049L122.381 45.5108C122.409 45.4461 122.426 45.3753 122.452 45.3081L122.487 45.208C122.501 45.1751 122.511 45.1407 122.518 45.1055C122.535 45.0359 122.551 44.9663 122.571 44.898C122.579 44.8626 122.59 44.8284 122.597 44.793L122.613 44.6868C122.625 44.616 122.636 44.5452 122.649 44.4731C122.661 44.4011 122.66 44.3291 122.667 44.2571L122.676 44.1484C122.681 44.1125 122.683 44.0761 122.682 44.0398V43.7114C122.682 43.676 122.675 43.6393 122.672 43.6027L122.652 43.3842C122.644 43.3116 122.633 43.2395 122.619 43.1681C122.604 43.0961 122.597 43.0216 122.579 42.9508L122.523 42.7372L122.496 42.6285L122.458 42.5236C122.434 42.454 122.409 42.3844 122.386 42.3124C122.363 42.2403 122.327 42.1756 122.297 42.1061C122.269 42.0361 122.237 41.968 122.202 41.9022C122.125 41.774 122.063 41.6312 121.973 41.5091C121.929 41.4456 121.89 41.3797 121.845 41.3174C121.799 41.2552 121.751 41.1954 121.704 41.1355L121.633 41.0428L121.554 40.9585C121.501 40.9012 121.448 40.845 121.396 40.7852C121.343 40.7254 121.281 40.679 121.224 40.624C121.167 40.5687 121.107 40.5165 121.045 40.4678C120.921 40.3654 120.792 40.2708 120.658 40.1846L120.452 40.0503C120.38 40.0137 120.307 39.9746 120.233 39.9355C120.084 39.8572 119.931 39.7871 119.775 39.7256C119.695 39.6913 119.614 39.662 119.532 39.6377C119.451 39.6108 119.368 39.5815 119.283 39.551Z" fill="#FDBC0B"/>
<path d="M107.446 38.939C107.446 38.939 103.807 39.4676 102.918 42.2924C102.05 45.0514 103.147 47.853 105.752 49.0518C108.591 50.3568 113.565 48.6856 116.464 43.551L117.252 44.5557L118.317 40.7054L115.117 42.7087L116.157 43.2641C116.157 43.2641 111.424 49.4461 106.323 47.4245C105.72 47.1601 105.208 46.7038 104.857 46.1178C104.507 45.5318 104.334 44.8448 104.363 44.1504C104.408 41.6393 106.266 40.8238 107.969 40.5345L107.894 40.3538" fill="#9635F0"/>
<path d="M117.314 38.0155C117.314 38.0155 115.658 34.7622 111.613 35.3128C107.569 35.8633 105.927 39.5561 108.956 41.4007C108.956 41.4007 107.112 37.6713 111.944 36.4188C114.996 35.6289 117.314 38.0155 117.314 38.0155Z" fill="#FF006E"/>
<path d="M5.632 22C5.48533 22 5.36067 21.9487 5.258 21.846C5.15533 21.7433 5.104 21.6187 5.104 21.472V9.306H1.034C0.887333 9.306 0.762667 9.25467 0.66 9.152C0.557333 9.04933 0.506 8.92467 0.506 8.778V7.15C0.506 6.98867 0.557333 6.85667 0.66 6.754C0.762667 6.65133 0.887333 6.6 1.034 6.6H12.254C12.4153 6.6 12.5473 6.65133 12.65 6.754C12.7527 6.85667 12.804 6.98867 12.804 7.15V8.778C12.804 8.92467 12.7527 9.04933 12.65 9.152C12.5473 9.25467 12.4153 9.306 12.254 9.306H8.206V21.472C8.206 21.6187 8.15467 21.7433 8.052 21.846C7.94933 21.9487 7.81733 22 7.656 22H5.632ZM15.2856 22C15.1389 22 15.0143 21.9487 14.9116 21.846C14.8089 21.7433 14.7576 21.6187 14.7576 21.472V6.908C14.7576 6.76133 14.8089 6.63667 14.9116 6.534C15.0143 6.43133 15.1389 6.38 15.2856 6.38H17.2436C17.4049 6.38 17.5296 6.43133 17.6176 6.534C17.7203 6.63667 17.7716 6.76133 17.7716 6.908V11.924C18.1676 11.4547 18.6516 11.0733 19.2236 10.78C19.7956 10.4867 20.4996 10.34 21.3356 10.34C22.2303 10.34 23.0076 10.5453 23.6676 10.956C24.3423 11.352 24.8629 11.9167 25.2296 12.65C25.5963 13.3833 25.7796 14.2633 25.7796 15.29V21.472C25.7796 21.6187 25.7283 21.7433 25.6256 21.846C25.5229 21.9487 25.3983 22 25.2516 22H23.2716C23.1249 22 23.0003 21.9487 22.8976 21.846C22.7949 21.7433 22.7436 21.6187 22.7436 21.472V15.422C22.7436 14.5713 22.5309 13.904 22.1056 13.42C21.6949 12.936 21.0936 12.694 20.3016 12.694C19.5389 12.694 18.9229 12.936 18.4536 13.42C17.9989 13.904 17.7716 14.5713 17.7716 15.422V21.472C17.7716 21.6187 17.7203 21.7433 17.6176 21.846C17.5296 21.9487 17.4049 22 17.2436 22H15.2856ZM32.2435 22.22C31.4809 22.22 30.7915 22.0733 30.1755 21.78C29.5595 21.472 29.0682 21.0687 28.7015 20.57C28.3495 20.0567 28.1735 19.4847 28.1735 18.854C28.1735 17.8273 28.5915 17.0133 29.4275 16.412C30.2635 15.796 31.3562 15.3853 32.7055 15.18L35.7195 14.74V14.278C35.7195 13.662 35.5655 13.1853 35.2575 12.848C34.9495 12.5107 34.4215 12.342 33.6735 12.342C33.1455 12.342 32.7129 12.452 32.3755 12.672C32.0529 12.8773 31.8109 13.156 31.6495 13.508C31.5322 13.6987 31.3635 13.794 31.1435 13.794H29.4055C29.2442 13.794 29.1195 13.75 29.0315 13.662C28.9582 13.574 28.9215 13.4567 28.9215 13.31C28.9362 13.0753 29.0315 12.7893 29.2075 12.452C29.3982 12.1147 29.6769 11.792 30.0435 11.484C30.4249 11.1613 30.9162 10.89 31.5175 10.67C32.1189 10.45 32.8449 10.34 33.6955 10.34C34.6195 10.34 35.3969 10.4573 36.0275 10.692C36.6729 10.912 37.1862 11.2127 37.5675 11.594C37.9489 11.9753 38.2275 12.4227 38.4035 12.936C38.5795 13.4493 38.6675 13.992 38.6675 14.564V21.472C38.6675 21.6187 38.6162 21.7433 38.5135 21.846C38.4109 21.9487 38.2862 22 38.1395 22H36.3575C36.1962 22 36.0642 21.9487 35.9615 21.846C35.8735 21.7433 35.8295 21.6187 35.8295 21.472V20.614C35.6389 20.878 35.3822 21.1347 35.0595 21.384C34.7369 21.6333 34.3409 21.8387 33.8715 22C33.4169 22.1467 32.8742 22.22 32.2435 22.22ZM32.9915 20.13C33.5049 20.13 33.9669 20.02 34.3775 19.8C34.8029 19.58 35.1329 19.2427 35.3675 18.788C35.6169 18.3187 35.7415 17.732 35.7415 17.028V16.566L33.5415 16.918C32.6762 17.05 32.0309 17.2627 31.6055 17.556C31.1802 17.8493 30.9675 18.2087 30.9675 18.634C30.9675 18.9567 31.0629 19.2353 31.2535 19.47C31.4589 19.69 31.7155 19.8587 32.0235 19.976C32.3315 20.0787 32.6542 20.13 32.9915 20.13ZM42.3679 22C42.2212 22 42.0966 21.9487 41.9939 21.846C41.8912 21.7433 41.8399 21.6187 41.8399 21.472V11.088C41.8399 10.9413 41.8912 10.8167 41.9939 10.714C42.0966 10.6113 42.2212 10.56 42.3679 10.56H44.1719C44.3186 10.56 44.4432 10.6113 44.5459 10.714C44.6486 10.8167 44.6999 10.9413 44.6999 11.088V11.99C45.0812 11.5207 45.5652 11.132 46.1519 10.824C46.7532 10.5013 47.4939 10.34 48.3739 10.34C49.2686 10.34 50.0459 10.5453 50.7059 10.956C51.3659 11.352 51.8719 11.9167 52.2239 12.65C52.5906 13.3833 52.7739 14.2633 52.7739 15.29V21.472C52.7739 21.6187 52.7226 21.7433 52.6199 21.846C52.5172 21.9487 52.3926 22 52.2459 22H50.3099C50.1632 22 50.0386 21.9487 49.9359 21.846C49.8332 21.7433 49.7819 21.6187 49.7819 21.472V15.422C49.7819 14.5713 49.5692 13.904 49.1439 13.42C48.7332 12.936 48.1319 12.694 47.3399 12.694C46.5772 12.694 45.9686 12.936 45.5139 13.42C45.0592 13.904 44.8319 14.5713 44.8319 15.422V21.472C44.8319 21.6187 44.7806 21.7433 44.6779 21.846C44.5752 21.9487 44.4506 22 44.3039 22H42.3679ZM56.4684 22C56.3217 22 56.1971 21.9487 56.0944 21.846C55.9917 21.7433 55.9404 21.6187 55.9404 21.472V6.908C55.9404 6.76133 55.9917 6.63667 56.0944 6.534C56.1971 6.43133 56.3217 6.38 56.4684 6.38H58.2504C58.4117 6.38 58.5364 6.43133 58.6244 6.534C58.7271 6.63667 58.7784 6.76133 58.7784 6.908V14.432L62.4744 10.934C62.6211 10.8167 62.7384 10.7287 62.8264 10.67C62.9291 10.5967 63.0831 10.56 63.2884 10.56H65.3344C65.4811 10.56 65.5984 10.604 65.6864 10.692C65.7744 10.78 65.8184 10.8973 65.8184 11.044C65.8184 11.1027 65.8037 11.1687 65.7744 11.242C65.7451 11.3153 65.6864 11.3813 65.5984 11.44L61.0664 15.686L66.1484 21.142C66.2951 21.2887 66.3684 21.4133 66.3684 21.516C66.3684 21.6627 66.3171 21.78 66.2144 21.868C66.1264 21.956 66.0164 22 65.8844 22H63.7944C63.5744 22 63.4131 21.9707 63.3104 21.912C63.2224 21.8387 63.1124 21.7433 62.9804 21.626L58.7784 17.204V21.472C58.7784 21.6187 58.7271 21.7433 58.6244 21.846C58.5364 21.9487 58.4117 22 58.2504 22H56.4684ZM75.079 26.18C74.9616 26.18 74.859 26.136 74.771 26.048C74.683 25.96 74.639 25.8573 74.639 25.74C74.639 25.6813 74.639 25.6227 74.639 25.564C74.6536 25.52 74.683 25.4613 74.727 25.388L76.443 21.318L72.219 11.352C72.1603 11.2053 72.131 11.1027 72.131 11.044C72.1456 10.912 72.197 10.802 72.285 10.714C72.373 10.6113 72.483 10.56 72.615 10.56H74.397C74.573 10.56 74.705 10.604 74.793 10.692C74.881 10.78 74.947 10.8753 74.991 10.978L77.917 18.172L80.931 10.978C80.975 10.8607 81.041 10.7653 81.129 10.692C81.217 10.604 81.349 10.56 81.525 10.56H83.285C83.4023 10.56 83.505 10.604 83.593 10.692C83.6957 10.78 83.747 10.8827 83.747 11C83.747 11.088 83.7176 11.2053 83.659 11.352L77.433 25.762C77.3743 25.8793 77.301 25.9747 77.213 26.048C77.125 26.136 76.993 26.18 76.817 26.18H75.079ZM90.6456 22.22C89.4723 22.22 88.4823 22.0147 87.6756 21.604C86.8836 21.1933 86.2749 20.614 85.8496 19.866C85.4389 19.118 85.2043 18.2453 85.1456 17.248C85.1309 16.984 85.1236 16.6613 85.1236 16.28C85.1236 15.8987 85.1309 15.576 85.1456 15.312C85.2043 14.3 85.4463 13.4273 85.8716 12.694C86.3116 11.946 86.9276 11.3667 87.7196 10.956C88.5263 10.5453 89.5016 10.34 90.6456 10.34C91.7896 10.34 92.7576 10.5453 93.5496 10.956C94.3563 11.3667 94.9723 11.946 95.3976 12.694C95.8376 13.4273 96.0869 14.3 96.1456 15.312C96.1603 15.576 96.1676 15.8987 96.1676 16.28C96.1676 16.6613 96.1603 16.984 96.1456 17.248C96.0869 18.2453 95.8449 19.118 95.4196 19.866C95.0089 20.614 94.4003 21.1933 93.5936 21.604C92.8016 22.0147 91.8189 22.22 90.6456 22.22ZM90.6456 20.042C91.4229 20.042 92.0243 19.8 92.4496 19.316C92.8749 18.8173 93.1096 18.0913 93.1536 17.138C93.1683 16.918 93.1756 16.632 93.1756 16.28C93.1756 15.928 93.1683 15.642 93.1536 15.422C93.1096 14.4687 92.8749 13.75 92.4496 13.266C92.0243 12.7673 91.4229 12.518 90.6456 12.518C89.8683 12.518 89.2669 12.7673 88.8416 13.266C88.4163 13.75 88.1816 14.4687 88.1376 15.422C88.1229 15.642 88.1156 15.928 88.1156 16.28C88.1156 16.632 88.1229 16.918 88.1376 17.138C88.1816 18.0913 88.4163 18.8173 88.8416 19.316C89.2669 19.8 89.8683 20.042 90.6456 20.042ZM103.201 22.22C102.306 22.22 101.529 22.022 100.869 21.626C100.224 21.2153 99.7251 20.6433 99.3731 19.91C99.0211 19.162 98.8451 18.282 98.8451 17.27V11.088C98.8451 10.9413 98.8965 10.8167 98.9991 10.714C99.1018 10.6113 99.2265 10.56 99.3731 10.56H101.309C101.47 10.56 101.595 10.6113 101.683 10.714C101.786 10.8167 101.837 10.9413 101.837 11.088V17.138C101.837 18.9567 102.636 19.866 104.235 19.866C104.998 19.866 105.599 19.624 106.039 19.14C106.494 18.656 106.721 17.9887 106.721 17.138V11.088C106.721 10.9413 106.772 10.8167 106.875 10.714C106.978 10.6113 107.102 10.56 107.249 10.56H109.185C109.332 10.56 109.456 10.6113 109.559 10.714C109.662 10.8167 109.713 10.9413 109.713 11.088V21.472C109.713 21.6187 109.662 21.7433 109.559 21.846C109.456 21.9487 109.332 22 109.185 22H107.403C107.242 22 107.11 21.9487 107.007 21.846C106.919 21.7433 106.875 21.6187 106.875 21.472V20.57C106.479 21.0833 105.988 21.4867 105.401 21.78C104.814 22.0733 104.081 22.22 103.201 22.22ZM119.72 22C119.573 22 119.448 21.9487 119.346 21.846C119.243 21.7433 119.192 21.6187 119.192 21.472V12.892H117.41C117.263 12.892 117.138 12.8407 117.036 12.738C116.933 12.6353 116.882 12.5033 116.882 12.342V11.088C116.882 10.9413 116.933 10.8167 117.036 10.714C117.138 10.6113 117.263 10.56 117.41 10.56H119.192V9.658C119.192 8.778 119.353 8.052 119.676 7.48C119.998 6.89333 120.475 6.45333 121.106 6.16C121.736 5.86667 122.536 5.72 123.504 5.72H125C125.161 5.72 125.286 5.77133 125.374 5.874C125.476 5.97667 125.528 6.10133 125.528 6.248V7.502C125.528 7.66333 125.476 7.79533 125.374 7.898C125.286 8.00067 125.161 8.052 125 8.052H123.592C123.005 8.052 122.602 8.19867 122.382 8.492C122.162 8.78533 122.052 9.21067 122.052 9.768V10.56H124.78C124.941 10.56 125.066 10.6113 125.154 10.714C125.256 10.8167 125.308 10.9413 125.308 11.088V12.342C125.308 12.5033 125.256 12.6353 125.154 12.738C125.066 12.8407 124.941 12.892 124.78 12.892H122.052V21.472C122.052 21.6187 122 21.7433 121.898 21.846C121.795 21.9487 121.67 22 121.524 22H119.72ZM132.307 22.22C131.134 22.22 130.144 22.0147 129.337 21.604C128.545 21.1933 127.937 20.614 127.511 19.866C127.101 19.118 126.866 18.2453 126.807 17.248C126.793 16.984 126.785 16.6613 126.785 16.28C126.785 15.8987 126.793 15.576 126.807 15.312C126.866 14.3 127.108 13.4273 127.533 12.694C127.973 11.946 128.589 11.3667 129.381 10.956C130.188 10.5453 131.163 10.34 132.307 10.34C133.451 10.34 134.419 10.5453 135.211 10.956C136.018 11.3667 136.634 11.946 137.059 12.694C137.499 13.4273 137.749 14.3 137.807 15.312C137.822 15.576 137.829 15.8987 137.829 16.28C137.829 16.6613 137.822 16.984 137.807 17.248C137.749 18.2453 137.507 19.118 137.081 19.866C136.671 20.614 136.062 21.1933 135.255 21.604C134.463 22.0147 133.481 22.22 132.307 22.22ZM132.307 20.042C133.085 20.042 133.686 19.8 134.111 19.316C134.537 18.8173 134.771 18.0913 134.815 17.138C134.83 16.918 134.837 16.632 134.837 16.28C134.837 15.928 134.83 15.642 134.815 15.422C134.771 14.4687 134.537 13.75 134.111 13.266C133.686 12.7673 133.085 12.518 132.307 12.518C131.53 12.518 130.929 12.7673 130.503 13.266C130.078 13.75 129.843 14.4687 129.799 15.422C129.785 15.642 129.777 15.928 129.777 16.28C129.777 16.632 129.785 16.918 129.799 17.138C129.843 18.0913 130.078 18.8173 130.503 19.316C130.929 19.8 131.53 20.042 132.307 20.042ZM141.145 22C140.998 22 140.874 21.9487 140.771 21.846C140.668 21.7433 140.617 21.6187 140.617 21.472V11.11C140.617 10.9487 140.668 10.8167 140.771 10.714C140.874 10.6113 140.998 10.56 141.145 10.56H142.927C143.074 10.56 143.198 10.6113 143.301 10.714C143.418 10.8167 143.477 10.9487 143.477 11.11V12.012C143.814 11.5427 144.247 11.1833 144.775 10.934C145.318 10.6847 145.941 10.56 146.645 10.56H147.547C147.708 10.56 147.833 10.6113 147.921 10.714C148.024 10.8167 148.075 10.9413 148.075 11.088V12.672C148.075 12.8187 148.024 12.9433 147.921 13.046C147.833 13.1487 147.708 13.2 147.547 13.2H145.831C145.127 13.2 144.577 13.398 144.181 13.794C143.8 14.1753 143.609 14.718 143.609 15.422V21.472C143.609 21.6187 143.558 21.7433 143.455 21.846C143.352 21.9487 143.22 22 143.059 22H141.145ZM159.995 22.22C158.939 22.22 158.008 22.022 157.201 21.626C156.409 21.23 155.786 20.658 155.331 19.91C154.891 19.1473 154.649 18.2307 154.605 17.16C154.591 16.94 154.583 16.654 154.583 16.302C154.583 15.9353 154.591 15.6347 154.605 15.4C154.649 14.3293 154.891 13.42 155.331 12.672C155.786 11.9093 156.409 11.33 157.201 10.934C158.008 10.538 158.939 10.34 159.995 10.34C160.934 10.34 161.733 10.472 162.393 10.736C163.053 10.9853 163.596 11.3153 164.021 11.726C164.447 12.122 164.762 12.54 164.967 12.98C165.187 13.4053 165.305 13.794 165.319 14.146C165.334 14.3073 165.283 14.4393 165.165 14.542C165.063 14.63 164.938 14.674 164.791 14.674H162.855C162.709 14.674 162.591 14.6373 162.503 14.564C162.43 14.4907 162.357 14.3807 162.283 14.234C162.063 13.6473 161.77 13.2367 161.403 13.002C161.051 12.7527 160.597 12.628 160.039 12.628C159.306 12.628 158.719 12.8627 158.279 13.332C157.854 13.7867 157.627 14.5127 157.597 15.51C157.568 16.0673 157.568 16.5807 157.597 17.05C157.627 18.062 157.854 18.7953 158.279 19.25C158.719 19.7047 159.306 19.932 160.039 19.932C160.611 19.932 161.073 19.8147 161.425 19.58C161.777 19.3307 162.063 18.9127 162.283 18.326C162.357 18.1793 162.43 18.0693 162.503 17.996C162.591 17.9227 162.709 17.886 162.855 17.886H164.791C164.938 17.886 165.063 17.9373 165.165 18.04C165.283 18.128 165.334 18.2527 165.319 18.414C165.305 18.678 165.231 18.9787 165.099 19.316C164.982 19.6387 164.784 19.976 164.505 20.328C164.241 20.6653 163.904 20.9807 163.493 21.274C163.083 21.5527 162.584 21.78 161.997 21.956C161.425 22.132 160.758 22.22 159.995 22.22ZM168.514 22C168.367 22 168.242 21.9487 168.14 21.846C168.037 21.7433 167.986 21.6187 167.986 21.472V6.908C167.986 6.76133 168.037 6.63667 168.14 6.534C168.242 6.43133 168.367 6.38 168.514 6.38H170.472C170.633 6.38 170.758 6.43133 170.846 6.534C170.948 6.63667 171 6.76133 171 6.908V11.924C171.396 11.4547 171.88 11.0733 172.452 10.78C173.024 10.4867 173.728 10.34 174.564 10.34C175.458 10.34 176.236 10.5453 176.896 10.956C177.57 11.352 178.091 11.9167 178.458 12.65C178.824 13.3833 179.008 14.2633 179.008 15.29V21.472C179.008 21.6187 178.956 21.7433 178.854 21.846C178.751 21.9487 178.626 22 178.48 22H176.5C176.353 22 176.228 21.9487 176.126 21.846C176.023 21.7433 175.972 21.6187 175.972 21.472V15.422C175.972 14.5713 175.759 13.904 175.334 13.42C174.923 12.936 174.322 12.694 173.53 12.694C172.767 12.694 172.151 12.936 171.682 13.42C171.227 13.904 171 14.5713 171 15.422V21.472C171 21.6187 170.948 21.7433 170.846 21.846C170.758 21.9487 170.633 22 170.472 22H168.514ZM187.21 22.22C186.036 22.22 185.046 22.0147 184.24 21.604C183.448 21.1933 182.839 20.614 182.414 19.866C182.003 19.118 181.768 18.2453 181.71 17.248C181.695 16.984 181.688 16.6613 181.688 16.28C181.688 15.8987 181.695 15.576 181.71 15.312C181.768 14.3 182.01 13.4273 182.436 12.694C182.876 11.946 183.492 11.3667 184.284 10.956C185.09 10.5453 186.066 10.34 187.21 10.34C188.354 10.34 189.322 10.5453 190.114 10.956C190.92 11.3667 191.536 11.946 191.962 12.694C192.402 13.4273 192.651 14.3 192.71 15.312C192.724 15.576 192.732 15.8987 192.732 16.28C192.732 16.6613 192.724 16.984 192.71 17.248C192.651 18.2453 192.409 19.118 191.984 19.866C191.573 20.614 190.964 21.1933 190.158 21.604C189.366 22.0147 188.383 22.22 187.21 22.22ZM187.21 20.042C187.987 20.042 188.588 19.8 189.014 19.316C189.439 18.8173 189.674 18.0913 189.718 17.138C189.732 16.918 189.74 16.632 189.74 16.28C189.74 15.928 189.732 15.642 189.718 15.422C189.674 14.4687 189.439 13.75 189.014 13.266C188.588 12.7673 187.987 12.518 187.21 12.518C186.432 12.518 185.831 12.7673 185.406 13.266C184.98 13.75 184.746 14.4687 184.702 15.422C184.687 15.642 184.68 15.928 184.68 16.28C184.68 16.632 184.687 16.918 184.702 17.138C184.746 18.0913 184.98 18.8173 185.406 19.316C185.831 19.8 186.432 20.042 187.21 20.042ZM200.579 22.22C199.406 22.22 198.416 22.0147 197.609 21.604C196.817 21.1933 196.209 20.614 195.783 19.866C195.373 19.118 195.138 18.2453 195.079 17.248C195.065 16.984 195.057 16.6613 195.057 16.28C195.057 15.8987 195.065 15.576 195.079 15.312C195.138 14.3 195.38 13.4273 195.805 12.694C196.245 11.946 196.861 11.3667 197.653 10.956C198.46 10.5453 199.435 10.34 200.579 10.34C201.723 10.34 202.691 10.5453 203.483 10.956C204.29 11.3667 204.906 11.946 205.331 12.694C205.771 13.4273 206.021 14.3 206.079 15.312C206.094 15.576 206.101 15.8987 206.101 16.28C206.101 16.6613 206.094 16.984 206.079 17.248C206.021 18.2453 205.779 19.118 205.353 19.866C204.943 20.614 204.334 21.1933 203.527 21.604C202.735 22.0147 201.753 22.22 200.579 22.22ZM200.579 20.042C201.357 20.042 201.958 19.8 202.383 19.316C202.809 18.8173 203.043 18.0913 203.087 17.138C203.102 16.918 203.109 16.632 203.109 16.28C203.109 15.928 203.102 15.642 203.087 15.422C203.043 14.4687 202.809 13.75 202.383 13.266C201.958 12.7673 201.357 12.518 200.579 12.518C199.802 12.518 199.201 12.7673 198.775 13.266C198.35 13.75 198.115 14.4687 198.071 15.422C198.057 15.642 198.049 15.928 198.049 16.28C198.049 16.632 198.057 16.918 198.071 17.138C198.115 18.0913 198.35 18.8173 198.775 19.316C199.201 19.8 199.802 20.042 200.579 20.042ZM213.223 22.22C212.343 22.22 211.587 22.1173 210.957 21.912C210.341 21.7067 209.835 21.45 209.439 21.142C209.043 20.834 208.749 20.526 208.559 20.218C208.368 19.91 208.265 19.6533 208.251 19.448C208.236 19.2867 208.28 19.162 208.383 19.074C208.5 18.9713 208.625 18.92 208.757 18.92H210.495C210.553 18.92 210.605 18.9273 210.649 18.942C210.693 18.9567 210.751 19.0007 210.825 19.074C211.015 19.2353 211.213 19.404 211.419 19.58C211.639 19.756 211.895 19.91 212.189 20.042C212.482 20.1593 212.849 20.218 213.289 20.218C213.861 20.218 214.337 20.108 214.719 19.888C215.115 19.6533 215.313 19.3233 215.313 18.898C215.313 18.59 215.225 18.3407 215.049 18.15C214.887 17.9593 214.579 17.7907 214.125 17.644C213.67 17.4827 213.025 17.314 212.189 17.138C211.367 16.9473 210.685 16.7053 210.143 16.412C209.6 16.1187 209.197 15.752 208.933 15.312C208.669 14.872 208.537 14.3587 208.537 13.772C208.537 13.2 208.705 12.6573 209.043 12.144C209.395 11.616 209.908 11.1833 210.583 10.846C211.272 10.5087 212.123 10.34 213.135 10.34C213.927 10.34 214.616 10.4427 215.203 10.648C215.789 10.8387 216.273 11.0807 216.655 11.374C217.051 11.6673 217.351 11.968 217.557 12.276C217.762 12.5693 217.872 12.826 217.887 13.046C217.901 13.2073 217.857 13.3393 217.755 13.442C217.652 13.53 217.535 13.574 217.403 13.574H215.775C215.701 13.574 215.635 13.5593 215.577 13.53C215.518 13.5007 215.459 13.464 215.401 13.42C215.239 13.2733 215.063 13.1193 214.873 12.958C214.682 12.782 214.447 12.6353 214.169 12.518C213.905 12.4007 213.553 12.342 213.113 12.342C212.555 12.342 212.13 12.4667 211.837 12.716C211.543 12.9507 211.397 13.2513 211.397 13.618C211.397 13.8673 211.463 14.0873 211.595 14.278C211.741 14.454 212.027 14.6227 212.453 14.784C212.878 14.9453 213.523 15.114 214.389 15.29C215.371 15.466 216.149 15.73 216.721 16.082C217.307 16.4193 217.718 16.8153 217.953 17.27C218.202 17.71 218.327 18.2013 218.327 18.744C218.327 19.404 218.129 19.998 217.733 20.526C217.351 21.054 216.779 21.472 216.017 21.78C215.269 22.0733 214.337 22.22 213.223 22.22ZM221.476 22C221.329 22 221.204 21.9487 221.102 21.846C220.999 21.7433 220.948 21.6187 220.948 21.472V11.088C220.948 10.9413 220.999 10.8167 221.102 10.714C221.204 10.6113 221.329 10.56 221.476 10.56H223.302C223.463 10.56 223.588 10.6113 223.676 10.714C223.778 10.8167 223.83 10.9413 223.83 11.088V21.472C223.83 21.6187 223.778 21.7433 223.676 21.846C223.588 21.9487 223.463 22 223.302 22H221.476ZM221.388 8.668C221.241 8.668 221.116 8.61667 221.014 8.514C220.911 8.41133 220.86 8.28667 220.86 8.14V6.556C220.86 6.40933 220.911 6.28467 221.014 6.182C221.116 6.07933 221.241 6.028 221.388 6.028H223.39C223.551 6.028 223.683 6.07933 223.786 6.182C223.888 6.28467 223.94 6.40933 223.94 6.556V8.14C223.94 8.28667 223.888 8.41133 223.786 8.514C223.683 8.61667 223.551 8.668 223.39 8.668H221.388ZM228.056 22C227.91 22 227.785 21.9487 227.682 21.846C227.58 21.7433 227.528 21.6187 227.528 21.472V11.088C227.528 10.9413 227.58 10.8167 227.682 10.714C227.785 10.6113 227.91 10.56 228.056 10.56H229.86C230.007 10.56 230.132 10.6113 230.234 10.714C230.337 10.8167 230.388 10.9413 230.388 11.088V11.99C230.77 11.5207 231.254 11.132 231.84 10.824C232.442 10.5013 233.182 10.34 234.062 10.34C234.957 10.34 235.734 10.5453 236.394 10.956C237.054 11.352 237.56 11.9167 237.912 12.65C238.279 13.3833 238.462 14.2633 238.462 15.29V21.472C238.462 21.6187 238.411 21.7433 238.308 21.846C238.206 21.9487 238.081 22 237.934 22H235.998C235.852 22 235.727 21.9487 235.624 21.846C235.522 21.7433 235.47 21.6187 235.47 21.472V15.422C235.47 14.5713 235.258 13.904 234.832 13.42C234.422 12.936 233.82 12.694 233.028 12.694C232.266 12.694 231.657 12.936 231.202 13.42C230.748 13.904 230.52 14.5713 230.52 15.422V21.472C230.52 21.6187 230.469 21.7433 230.366 21.846C230.264 21.9487 230.139 22 229.992 22H228.056ZM246.777 26.84C245.706 26.84 244.826 26.7007 244.137 26.422C243.447 26.1433 242.905 25.806 242.509 25.41C242.113 25.014 241.827 24.618 241.651 24.222C241.489 23.8407 241.401 23.54 241.387 23.32C241.372 23.1733 241.416 23.0413 241.519 22.924C241.636 22.8213 241.768 22.77 241.915 22.77H243.829C243.975 22.77 244.093 22.7993 244.181 22.858C244.269 22.9313 244.342 23.056 244.401 23.232C244.489 23.4227 244.606 23.628 244.753 23.848C244.899 24.068 245.119 24.2513 245.413 24.398C245.721 24.5593 246.139 24.64 246.667 24.64C247.224 24.64 247.693 24.5593 248.075 24.398C248.456 24.2367 248.742 23.9653 248.933 23.584C249.138 23.2027 249.241 22.6747 249.241 22V20.504C248.889 20.9293 248.434 21.274 247.877 21.538C247.334 21.802 246.659 21.934 245.853 21.934C245.075 21.934 244.393 21.8093 243.807 21.56C243.235 21.296 242.758 20.9367 242.377 20.482C241.995 20.0127 241.702 19.4627 241.497 18.832C241.306 18.2013 241.196 17.5047 241.167 16.742C241.152 16.346 241.152 15.95 241.167 15.554C241.196 14.8207 241.306 14.1387 241.497 13.508C241.702 12.8773 241.995 12.3273 242.377 11.858C242.758 11.374 243.235 11 243.807 10.736C244.393 10.472 245.075 10.34 245.853 10.34C246.689 10.34 247.393 10.5013 247.965 10.824C248.537 11.132 249.006 11.5207 249.373 11.99V11.11C249.373 10.9487 249.424 10.8167 249.527 10.714C249.629 10.6113 249.754 10.56 249.901 10.56H251.683C251.829 10.56 251.954 10.6113 252.057 10.714C252.159 10.8167 252.211 10.9487 252.211 11.11L252.233 21.714C252.233 22.77 252.035 23.6793 251.639 24.442C251.243 25.2047 250.641 25.7913 249.835 26.202C249.043 26.6273 248.023 26.84 246.777 26.84ZM246.667 19.602C247.268 19.602 247.752 19.47 248.119 19.206C248.485 18.942 248.757 18.5973 248.933 18.172C249.109 17.7467 249.211 17.314 249.241 16.874C249.255 16.6833 249.263 16.4413 249.263 16.148C249.263 15.8547 249.255 15.62 249.241 15.444C249.211 14.9893 249.109 14.5567 248.933 14.146C248.757 13.7207 248.485 13.376 248.119 13.112C247.752 12.8333 247.268 12.694 246.667 12.694C246.065 12.694 245.581 12.8333 245.215 13.112C244.848 13.376 244.584 13.728 244.423 14.168C244.276 14.608 244.188 15.092 244.159 15.62C244.129 15.972 244.129 16.3313 244.159 16.698C244.188 17.2113 244.276 17.6953 244.423 18.15C244.584 18.59 244.848 18.942 245.215 19.206C245.581 19.47 246.065 19.602 246.667 19.602ZM4.246 50C4.026 50 3.85 49.9413 3.718 49.824C3.60067 49.692 3.52 49.5307 3.476 49.34L0.858 35.238C0.858 35.194 0.850667 35.1573 0.836 35.128C0.836 35.0987 0.836 35.0767 0.836 35.062C0.836 34.93 0.88 34.82 0.968 34.732C1.07067 34.644 1.18067 34.6 1.298 34.6H3.234C3.60067 34.6 3.806 34.7467 3.85 35.04L5.676 45.006L7.656 38.56C7.7 38.4427 7.77333 38.3253 7.876 38.208C7.99333 38.076 8.162 38.01 8.382 38.01H9.57C9.80467 38.01 9.97333 38.076 10.076 38.208C10.1787 38.3253 10.2447 38.4427 10.274 38.56L12.276 44.984L14.102 35.04C14.146 34.7467 14.3513 34.6 14.718 34.6H16.654C16.7713 34.6 16.874 34.644 16.962 34.732C17.05 34.82 17.094 34.93 17.094 35.062C17.094 35.0767 17.094 35.0987 17.094 35.128C17.094 35.1573 17.0867 35.194 17.072 35.238L14.454 49.34C14.4247 49.5307 14.344 49.692 14.212 49.824C14.08 49.9413 13.904 50 13.684 50H12.21C11.99 50 11.814 49.9413 11.682 49.824C11.5647 49.7067 11.484 49.582 11.44 49.45L8.976 42.102L6.512 49.45C6.45333 49.582 6.36533 49.7067 6.248 49.824C6.13067 49.9413 5.95467 50 5.72 50H4.246ZM24.3933 50.22C23.2199 50.22 22.2299 50.0147 21.4233 49.604C20.6313 49.1933 20.0226 48.614 19.5973 47.866C19.1866 47.118 18.9519 46.2453 18.8933 45.248C18.8786 44.984 18.8713 44.6613 18.8713 44.28C18.8713 43.8987 18.8786 43.576 18.8933 43.312C18.9519 42.3 19.1939 41.4273 19.6193 40.694C20.0593 39.946 20.6753 39.3667 21.4673 38.956C22.2739 38.5453 23.2493 38.34 24.3933 38.34C25.5373 38.34 26.5053 38.5453 27.2973 38.956C28.1039 39.3667 28.7199 39.946 29.1453 40.694C29.5853 41.4273 29.8346 42.3 29.8933 43.312C29.9079 43.576 29.9153 43.8987 29.9153 44.28C29.9153 44.6613 29.9079 44.984 29.8933 45.248C29.8346 46.2453 29.5926 47.118 29.1673 47.866C28.7566 48.614 28.1479 49.1933 27.3413 49.604C26.5493 50.0147 25.5666 50.22 24.3933 50.22ZM24.3933 48.042C25.1706 48.042 25.7719 47.8 26.1973 47.316C26.6226 46.8173 26.8573 46.0913 26.9013 45.138C26.9159 44.918 26.9233 44.632 26.9233 44.28C26.9233 43.928 26.9159 43.642 26.9013 43.422C26.8573 42.4687 26.6226 41.75 26.1973 41.266C25.7719 40.7673 25.1706 40.518 24.3933 40.518C23.6159 40.518 23.0146 40.7673 22.5893 41.266C22.1639 41.75 21.9293 42.4687 21.8853 43.422C21.8706 43.642 21.8633 43.928 21.8633 44.28C21.8633 44.632 21.8706 44.918 21.8853 45.138C21.9293 46.0913 22.1639 46.8173 22.5893 47.316C23.0146 47.8 23.6159 48.042 24.3933 48.042ZM33.2308 50C33.0841 50 32.9594 49.9487 32.8568 49.846C32.7541 49.7433 32.7028 49.6187 32.7028 49.472V39.11C32.7028 38.9487 32.7541 38.8167 32.8568 38.714C32.9594 38.6113 33.0841 38.56 33.2308 38.56H35.0128C35.1594 38.56 35.2841 38.6113 35.3868 38.714C35.5041 38.8167 35.5628 38.9487 35.5628 39.11V40.012C35.9001 39.5427 36.3328 39.1833 36.8608 38.934C37.4034 38.6847 38.0268 38.56 38.7308 38.56H39.6328C39.7941 38.56 39.9188 38.6113 40.0068 38.714C40.1094 38.8167 40.1608 38.9413 40.1608 39.088V40.672C40.1608 40.8187 40.1094 40.9433 40.0068 41.046C39.9188 41.1487 39.7941 41.2 39.6328 41.2H37.9168C37.2128 41.2 36.6628 41.398 36.2668 41.794C35.8854 42.1753 35.6948 42.718 35.6948 43.422V49.472C35.6948 49.6187 35.6434 49.7433 35.5408 49.846C35.4381 49.9487 35.3061 50 35.1448 50H33.2308ZM42.7766 50C42.6299 50 42.5053 49.9487 42.4026 49.846C42.2999 49.7433 42.2486 49.6187 42.2486 49.472V34.908C42.2486 34.7613 42.2999 34.6367 42.4026 34.534C42.5053 34.4313 42.6299 34.38 42.7766 34.38H44.5586C44.7199 34.38 44.8446 34.4313 44.9326 34.534C45.0353 34.6367 45.0866 34.7613 45.0866 34.908V42.432L48.7826 38.934C48.9293 38.8167 49.0466 38.7287 49.1346 38.67C49.2373 38.5967 49.3913 38.56 49.5966 38.56H51.6426C51.7893 38.56 51.9066 38.604 51.9946 38.692C52.0826 38.78 52.1266 38.8973 52.1266 39.044C52.1266 39.1027 52.1119 39.1687 52.0826 39.242C52.0533 39.3153 51.9946 39.3813 51.9066 39.44L47.3746 43.686L52.4566 49.142C52.6033 49.2887 52.6766 49.4133 52.6766 49.516C52.6766 49.6627 52.6253 49.78 52.5226 49.868C52.4346 49.956 52.3246 50 52.1926 50H50.1026C49.8826 50 49.7213 49.9707 49.6186 49.912C49.5306 49.8387 49.4206 49.7433 49.2886 49.626L45.0866 45.204V49.472C45.0866 49.6187 45.0353 49.7433 44.9326 49.846C44.8446 49.9487 44.7199 50 44.5586 50H42.7766ZM55.2003 50C55.0536 50 54.929 49.9487 54.8263 49.846C54.7236 49.7433 54.6723 49.6187 54.6723 49.472V39.088C54.6723 38.9413 54.7236 38.8167 54.8263 38.714C54.929 38.6113 55.0536 38.56 55.2003 38.56H57.0263C57.1876 38.56 57.3123 38.6113 57.4003 38.714C57.503 38.8167 57.5543 38.9413 57.5543 39.088V49.472C57.5543 49.6187 57.503 49.7433 57.4003 49.846C57.3123 49.9487 57.1876 50 57.0263 50H55.2003ZM55.1123 36.668C54.9656 36.668 54.841 36.6167 54.7383 36.514C54.6356 36.4113 54.5843 36.2867 54.5843 36.14V34.556C54.5843 34.4093 54.6356 34.2847 54.7383 34.182C54.841 34.0793 54.9656 34.028 55.1123 34.028H57.1143C57.2756 34.028 57.4076 34.0793 57.5103 34.182C57.613 34.2847 57.6643 34.4093 57.6643 34.556V36.14C57.6643 36.2867 57.613 36.4113 57.5103 36.514C57.4076 36.6167 57.2756 36.668 57.1143 36.668H55.1123ZM65.9475 50.22C64.7742 50.22 63.7842 50.0147 62.9775 49.604C62.1855 49.1933 61.5769 48.614 61.1515 47.866C60.7409 47.118 60.5062 46.2453 60.4475 45.248C60.4329 44.984 60.4255 44.6613 60.4255 44.28C60.4255 43.8987 60.4329 43.576 60.4475 43.312C60.5062 42.3 60.7482 41.4273 61.1735 40.694C61.6135 39.946 62.2295 39.3667 63.0215 38.956C63.8282 38.5453 64.8035 38.34 65.9475 38.34C67.0915 38.34 68.0595 38.5453 68.8515 38.956C69.6582 39.3667 70.2742 39.946 70.6995 40.694C71.1395 41.4273 71.3889 42.3 71.4475 43.312C71.4622 43.576 71.4695 43.8987 71.4695 44.28C71.4695 44.6613 71.4622 44.984 71.4475 45.248C71.3889 46.2453 71.1469 47.118 70.7215 47.866C70.3109 48.614 69.7022 49.1933 68.8955 49.604C68.1035 50.0147 67.1209 50.22 65.9475 50.22ZM65.9475 48.042C66.7249 48.042 67.3262 47.8 67.7515 47.316C68.1769 46.8173 68.4115 46.0913 68.4555 45.138C68.4702 44.918 68.4775 44.632 68.4775 44.28C68.4775 43.928 68.4702 43.642 68.4555 43.422C68.4115 42.4687 68.1769 41.75 67.7515 41.266C67.3262 40.7673 66.7249 40.518 65.9475 40.518C65.1702 40.518 64.5689 40.7673 64.1435 41.266C63.7182 41.75 63.4835 42.4687 63.4395 43.422C63.4249 43.642 63.4175 43.928 63.4175 44.28C63.4175 44.632 63.4249 44.918 63.4395 45.138C63.4835 46.0913 63.7182 46.8173 64.1435 47.316C64.5689 47.8 65.1702 48.042 65.9475 48.042ZM74.7851 50C74.6384 50 74.5137 49.9487 74.4111 49.846C74.3084 49.7433 74.2571 49.6187 74.2571 49.472V39.088C74.2571 38.9413 74.3084 38.8167 74.4111 38.714C74.5137 38.6113 74.6384 38.56 74.7851 38.56H76.5011C76.6477 38.56 76.7724 38.6113 76.8751 38.714C76.9777 38.8167 77.0291 38.9413 77.0291 39.088V39.836C77.3371 39.4253 77.7477 39.0807 78.2611 38.802C78.7891 38.5087 79.4124 38.3547 80.1311 38.34C81.8031 38.3107 82.9691 38.9633 83.6291 40.298C83.9664 39.7113 84.4504 39.242 85.0811 38.89C85.7264 38.5233 86.4377 38.34 87.2151 38.34C87.9777 38.34 88.6671 38.516 89.2831 38.868C89.9137 39.22 90.4051 39.7553 90.7571 40.474C91.1237 41.178 91.3071 42.0727 91.3071 43.158V49.472C91.3071 49.6187 91.2557 49.7433 91.1531 49.846C91.0504 49.9487 90.9257 50 90.7791 50H88.9751C88.8284 50 88.7037 49.9487 88.6011 49.846C88.4984 49.7433 88.4471 49.6187 88.4471 49.472V43.334C88.4471 42.674 88.3517 42.1533 88.1611 41.772C87.9704 41.376 87.7137 41.0973 87.3911 40.936C87.0684 40.7747 86.7091 40.694 86.3131 40.694C85.9904 40.694 85.6677 40.7747 85.3451 40.936C85.0224 41.0973 84.7584 41.376 84.5531 41.772C84.3477 42.1533 84.2451 42.674 84.2451 43.334V49.472C84.2451 49.6187 84.1937 49.7433 84.0911 49.846C83.9884 49.9487 83.8637 50 83.7171 50H81.9131C81.7664 50 81.6417 49.9487 81.5391 49.846C81.4364 49.7433 81.3851 49.6187 81.3851 49.472V43.334C81.3851 42.674 81.2824 42.1533 81.0771 41.772C80.8717 41.376 80.6077 41.0973 80.2851 40.936C79.9624 40.7747 79.6177 40.694 79.2511 40.694C78.9137 40.694 78.5837 40.782 78.2611 40.958C77.9384 41.1193 77.6744 41.3907 77.4691 41.772C77.2637 42.1533 77.1611 42.674 77.1611 43.334V49.472C77.1611 49.6187 77.1097 49.7433 77.0071 49.846C76.9044 49.9487 76.7797 50 76.6331 50H74.7851Z" fill="#0E0F12"/>
</svg>
