<svg width="16" height="16" viewBox="0 0 16 16" fill="none" xmlns="http://www.w3.org/2000/svg">
<path fill-rule="evenodd" clip-rule="evenodd" d="M1.33334 6.66671C1.33334 6.29852 1.63181 6.00004 2 6.00004H11.3333C11.7015 6.00004 12 6.29852 12 6.66671C12 7.0349 11.7015 7.33337 11.3333 7.33337H2C1.63181 7.33337 1.33334 7.0349 1.33334 6.66671Z" fill="#0E0F12"/>
<path fill-rule="evenodd" clip-rule="evenodd" d="M1.33334 4.00004C1.33334 3.63185 1.63181 3.33337 2 3.33337H14C14.3682 3.33337 14.6667 3.63185 14.6667 4.00004C14.6667 4.36823 14.3682 4.66671 14 4.66671H2C1.63181 4.66671 1.33334 4.36823 1.33334 4.00004Z" fill="#0E0F12"/>
<path fill-rule="evenodd" clip-rule="evenodd" d="M1.33334 9.33337C1.33334 8.96518 1.63181 8.66671 2 8.66671H14C14.3682 8.66671 14.6667 8.96518 14.6667 9.33337C14.6667 9.70156 14.3682 10 14 10H2C1.63181 10 1.33334 9.70156 1.33334 9.33337Z" fill="#0E0F12"/>
<path fill-rule="evenodd" clip-rule="evenodd" d="M1.33334 12C1.33334 11.6319 1.63181 11.3334 2 11.3334H11.3333C11.7015 11.3334 12 11.6319 12 12C12 12.3682 11.7015 12.6667 11.3333 12.6667H2C1.63181 12.6667 1.33334 12.3682 1.33334 12Z" fill="#0E0F12"/>
</svg>
