<svg width="102" height="31" viewBox="0 0 102 31" fill="none" xmlns="http://www.w3.org/2000/svg">
<path d="M38.0923 20.2123C37.8365 20.2123 37.6676 20.1028 37.5857 19.8837L35.3904 13.7846C35.3801 13.7584 35.375 13.7189 35.375 13.6663C35.375 13.5875 35.4057 13.5218 35.4671 13.4692C35.5285 13.4078 35.6053 13.3772 35.6974 13.3772H36.8642C36.9665 13.3772 37.0535 13.4035 37.1251 13.456C37.207 13.5086 37.2582 13.5656 37.2787 13.6269L38.7678 17.9515L40.3491 13.6663C40.3798 13.5875 40.431 13.5218 40.5026 13.4692C40.5845 13.4078 40.6868 13.3772 40.8096 13.3772H41.5926C41.7154 13.3772 41.8126 13.4078 41.8843 13.4692C41.9662 13.5218 42.0173 13.5875 42.0378 13.6663L43.6344 17.9515L45.1236 13.6269C45.144 13.5656 45.1901 13.5086 45.2617 13.456C45.3334 13.4035 45.4255 13.3772 45.5381 13.3772H46.6895C46.7816 13.3772 46.8584 13.4078 46.9198 13.4692C46.9914 13.5218 47.0272 13.5875 47.0272 13.6663L46.9965 13.7846L44.8012 19.8837C44.7602 19.9888 44.6988 20.0721 44.617 20.1334C44.5453 20.186 44.443 20.2123 44.3099 20.2123H43.2967C43.0306 20.2123 42.8617 20.1028 42.7901 19.8837L41.2088 15.7563L39.6122 19.8837C39.5303 20.1028 39.3563 20.2123 39.0902 20.2123H38.0923Z" fill="#020547"/>
<path d="M51.8423 20.3438C50.6346 20.3438 49.7032 20.0809 49.0482 19.5551C48.3932 19.0293 48.0401 18.302 47.9889 17.3731L47.9735 16.7947L47.9889 16.2164C48.0401 15.2963 48.3983 14.5733 49.0635 14.0475C49.7288 13.513 50.655 13.2457 51.8423 13.2457C53.0193 13.2457 53.9404 13.513 54.6056 14.0475C55.2709 14.5733 55.6291 15.2963 55.6803 16.2164C55.6905 16.3215 55.6956 16.5143 55.6956 16.7947C55.6956 17.0752 55.6905 17.2679 55.6803 17.3731C55.6291 18.302 55.276 19.0293 54.621 19.5551C53.966 20.0809 53.0397 20.3438 51.8423 20.3438ZM51.8423 19.0162C52.3847 19.0162 52.7992 18.8716 53.0858 18.5824C53.3826 18.2932 53.5412 17.8682 53.5617 17.3074C53.5719 17.2197 53.5771 17.0489 53.5771 16.7947C53.5771 16.5406 53.5719 16.3697 53.5617 16.2821C53.5412 15.7213 53.3826 15.2963 53.0858 15.0071C52.789 14.7091 52.3745 14.5602 51.8423 14.5602C51.2998 14.5602 50.8802 14.7091 50.5834 15.0071C50.2866 15.2963 50.128 15.7213 50.1075 16.2821L50.0921 16.7947L50.1075 17.3074C50.128 17.8682 50.2866 18.2932 50.5834 18.5824C50.8802 18.8716 51.2998 19.0162 51.8423 19.0162Z" fill="#020547"/>
<path d="M57.7647 20.2123C57.6624 20.2123 57.5754 20.1816 57.5037 20.1203C57.4321 20.059 57.3962 19.9845 57.3962 19.8968V13.7058C57.3962 13.6094 57.4321 13.5305 57.5037 13.4692C57.5754 13.4078 57.6624 13.3772 57.7647 13.3772H59.0236C59.1362 13.3772 59.2283 13.4078 59.2999 13.4692C59.3716 13.5305 59.4074 13.6094 59.4074 13.7058V14.2447C59.9191 13.6663 60.656 13.3772 61.6181 13.3772H62.2629C62.3754 13.3772 62.4624 13.4078 62.5238 13.4692C62.5955 13.5218 62.6313 13.5962 62.6313 13.6926V14.6522C62.6313 14.7398 62.5955 14.8143 62.5238 14.8756C62.4624 14.937 62.3754 14.9676 62.2629 14.9676H61.05C60.569 14.9676 60.1903 15.0859 59.914 15.3225C59.6377 15.5592 59.4995 15.8834 59.4995 16.2952V19.8968C59.4995 19.9845 59.4637 20.059 59.392 20.1203C59.3204 20.1816 59.2334 20.2123 59.131 20.2123H57.7647Z" fill="#020547"/>
<path d="M64.2117 20.2123C64.1094 20.2123 64.0224 20.1816 63.9507 20.1203C63.8791 20.059 63.8433 19.9845 63.8433 19.8968V11.1952C63.8433 11.0988 63.8791 11.0243 63.9507 10.9717C64.0224 10.9104 64.1094 10.8797 64.2117 10.8797H65.486C65.5883 10.8797 65.6753 10.9104 65.7469 10.9717C65.8186 11.0331 65.8544 11.1075 65.8544 11.1952V15.6906L68.4029 13.6006C68.4336 13.5831 68.4796 13.5524 68.541 13.5086C68.6127 13.456 68.6792 13.421 68.7406 13.4035C68.802 13.3859 68.8788 13.3772 68.9709 13.3772H70.4293C70.5317 13.3772 70.6136 13.4035 70.675 13.456C70.7364 13.5086 70.7671 13.5787 70.7671 13.6663C70.7671 13.7452 70.7159 13.8241 70.6136 13.9029L67.4817 16.4398L70.9974 19.6997C71.0895 19.7785 71.1355 19.853 71.1355 19.9231C71.1355 20.0108 71.1048 20.0809 71.0434 20.1334C70.982 20.186 70.9052 20.2123 70.8131 20.2123H69.324C69.1807 20.2123 69.0732 20.1992 69.0016 20.1729C68.9402 20.1378 68.8583 20.0765 68.756 19.9888L65.8544 17.3468V19.8968C65.8544 19.9845 65.8186 20.059 65.7469 20.1203C65.6753 20.1816 65.5883 20.2123 65.486 20.2123H64.2117Z" fill="#020547"/>
<path d="M72.6056 12.2599C72.5033 12.2599 72.4163 12.2292 72.3446 12.1679C72.273 12.1065 72.2372 12.032 72.2372 11.9444V10.9849C72.2372 10.8885 72.273 10.8096 72.3446 10.7483C72.4163 10.6869 72.5033 10.6562 72.6056 10.6562H74.018C74.1306 10.6562 74.2227 10.6869 74.2943 10.7483C74.366 10.8096 74.4018 10.8885 74.4018 10.9849V11.9444C74.4018 12.032 74.3609 12.1065 74.279 12.1679C74.2073 12.2292 74.1203 12.2599 74.018 12.2599H72.6056ZM72.667 20.2123C72.5647 20.2123 72.4777 20.1816 72.406 20.1203C72.3344 20.059 72.2986 19.9845 72.2986 19.8968V13.6926C72.2986 13.5962 72.3344 13.5218 72.406 13.4692C72.4777 13.4078 72.5647 13.3772 72.667 13.3772H73.9719C74.0743 13.3772 74.1613 13.4078 74.2329 13.4692C74.3046 13.5305 74.3404 13.605 74.3404 13.6926V19.8968C74.3404 19.9845 74.3046 20.059 74.2329 20.1203C74.1613 20.1816 74.0743 20.2123 73.9719 20.2123H72.667Z" fill="#020547"/>
<path d="M79.9078 20.3438C78.7001 20.3438 77.7687 20.0809 77.1137 19.5551C76.4587 19.0293 76.1056 18.302 76.0544 17.3731L76.0391 16.7947L76.0544 16.2164C76.1056 15.2963 76.4638 14.5733 77.1291 14.0475C77.7943 13.513 78.7206 13.2457 79.9078 13.2457C81.0848 13.2457 82.0059 13.513 82.6712 14.0475C83.3364 14.5733 83.6947 15.2963 83.7458 16.2164C83.7561 16.3215 83.7612 16.5143 83.7612 16.7947C83.7612 17.0752 83.7561 17.2679 83.7458 17.3731C83.6947 18.302 83.3416 19.0293 82.6865 19.5551C82.0315 20.0809 81.1053 20.3438 79.9078 20.3438ZM79.9078 19.0162C80.4502 19.0162 80.8647 18.8716 81.1513 18.5824C81.4481 18.2932 81.6068 17.8682 81.6272 17.3074C81.6375 17.2197 81.6426 17.0489 81.6426 16.7947C81.6426 16.5406 81.6375 16.3697 81.6272 16.2821C81.6068 15.7213 81.4481 15.2963 81.1513 15.0071C80.8545 14.7091 80.44 14.5602 79.9078 14.5602C79.3654 14.5602 78.9457 14.7091 78.6489 15.0071C78.3521 15.2963 78.1935 15.7213 78.173 16.2821L78.1577 16.7947L78.173 17.3074C78.1935 17.8682 78.3521 18.2932 78.6489 18.5824C78.9457 18.8716 79.3654 19.0162 79.9078 19.0162Z" fill="#020547"/>
<path d="M85.8302 20.2123C85.7279 20.2123 85.6409 20.1816 85.5692 20.1203C85.4976 20.059 85.4618 19.9845 85.4618 19.8968V13.6926C85.4618 13.5962 85.4976 13.5218 85.5692 13.4692C85.6409 13.4078 85.7279 13.3772 85.8302 13.3772H87.043C87.1556 13.3772 87.2426 13.4078 87.304 13.4692C87.3757 13.5218 87.4115 13.5962 87.4115 13.6926V14.1395C87.9642 13.5437 88.7062 13.2457 89.6375 13.2457C90.7736 13.2457 91.5668 13.6357 92.0171 14.4156C92.2628 14.0651 92.6107 13.7846 93.0611 13.5743C93.5114 13.3553 93.9975 13.2457 94.5195 13.2457C95.3588 13.2457 96.0445 13.4911 96.5767 13.9818C97.1089 14.4725 97.375 15.1867 97.375 16.1244V19.8968C97.375 19.9845 97.3392 20.059 97.2675 20.1203C97.2061 20.1816 97.1191 20.2123 97.0066 20.2123H95.7323C95.63 20.2123 95.543 20.1816 95.4713 20.1203C95.3997 20.059 95.3639 19.9845 95.3639 19.8968V16.2295C95.3639 15.6775 95.2257 15.2787 94.9494 15.0334C94.6833 14.788 94.3302 14.6653 93.8901 14.6653C93.4909 14.6653 93.1481 14.7924 92.8615 15.0465C92.5851 15.2919 92.447 15.6862 92.447 16.2295V19.8968C92.447 19.9845 92.4112 20.059 92.3395 20.1203C92.2781 20.1816 92.1911 20.2123 92.0785 20.2123H90.789C90.6866 20.2123 90.5996 20.1816 90.528 20.1203C90.4563 20.059 90.4205 19.9845 90.4205 19.8968V16.2295C90.4205 15.6862 90.2823 15.2919 90.006 15.0465C89.7297 14.7924 89.3766 14.6653 88.9467 14.6653C88.5476 14.6653 88.2047 14.7924 87.9181 15.0465C87.6418 15.2919 87.5036 15.6862 87.5036 16.2295V19.8968C87.5036 19.9845 87.4678 20.059 87.3961 20.1203C87.3347 20.1816 87.2477 20.2123 87.1352 20.2123H85.8302Z" fill="#020547"/>
<path d="M19.2394 20.8705C19.2394 20.8705 16.815 23.1477 13.4846 21.9719C13.4846 21.9745 16.9644 25.4784 19.2394 20.8705Z" fill="#3A86FF"/>
<path d="M22.1822 12.3476C22.9451 12.142 23.7481 12.1828 24.489 12.465C24.5853 12.4985 24.6793 12.5386 24.7707 12.5851C24.8637 12.6295 24.9592 12.6699 25.0498 12.7156C25.1404 12.7613 25.2286 12.8226 25.3168 12.8774L25.4502 12.9622L25.5727 13.0575C25.6559 13.1227 25.7416 13.188 25.8249 13.2545C25.9082 13.3211 25.9804 13.4007 26.0588 13.4751C26.2152 13.6255 26.3613 13.7877 26.4959 13.9605C27.0475 14.6696 27.4126 15.5221 27.5538 16.4308C27.5636 16.4869 27.5746 16.5443 27.5832 16.6017L27.5979 16.774L27.6223 17.1198C27.6279 17.2359 27.6279 17.3522 27.6223 17.4682C27.6223 17.5844 27.6223 17.7005 27.6089 17.8167C27.5243 18.7501 27.2188 19.6454 26.7212 20.4188C26.6575 20.514 26.5877 20.6041 26.5216 20.6967C26.4566 20.7884 26.3863 20.8755 26.311 20.9577C26.1654 21.1297 26.0087 21.2906 25.842 21.4392C25.7588 21.5123 25.678 21.5906 25.591 21.6585L25.3217 21.8529C25.2776 21.8842 25.2323 21.9182 25.187 21.9482L25.0449 22.0304L24.7596 22.1922C24.6629 22.2418 24.5613 22.2809 24.4633 22.3227C24.3652 22.3682 24.2646 22.4074 24.1621 22.4401C23.9592 22.5086 23.7522 22.5627 23.5426 22.602C22.7223 22.7635 21.8763 22.6864 21.0937 22.3788C20.354 22.0891 19.7138 21.5678 19.2571 20.8833C19.588 21.0427 19.9313 21.1711 20.2831 21.267C20.4501 21.3125 20.6194 21.3483 20.7901 21.374C20.9564 21.4008 21.124 21.4173 21.2921 21.4236C21.4552 21.4327 21.6187 21.4327 21.7818 21.4236C21.9425 21.4144 22.1025 21.3939 22.2606 21.3622C22.4161 21.3231 22.5716 21.3074 22.721 21.2526L22.9438 21.1848C23.0161 21.1534 23.0883 21.1247 23.1593 21.096C23.4419 20.9808 23.7126 20.8352 23.9674 20.6615C24.4553 20.3099 24.8717 19.8572 25.1919 19.3304L25.2996 19.1308L25.3547 19.0316C25.3719 18.9964 25.3841 18.9611 25.4 18.9259L25.4931 18.7184C25.5237 18.6492 25.5421 18.5735 25.569 18.5018L25.6069 18.3948C25.6216 18.3596 25.6327 18.3228 25.64 18.2851C25.6584 18.2108 25.6755 18.1364 25.6963 18.0633C25.7049 18.0255 25.7171 17.9889 25.7245 17.9511L25.7416 17.8375C25.7539 17.7619 25.7661 17.6862 25.7796 17.6092C25.7931 17.5322 25.7918 17.4552 25.7992 17.3782L25.809 17.2621C25.8147 17.2237 25.8168 17.1848 25.8151 17.1459V16.7949C25.8151 16.757 25.8078 16.7179 25.8041 16.6787L25.7833 16.4452C25.7751 16.3676 25.7633 16.2905 25.7478 16.2142C25.7318 16.1372 25.7245 16.0576 25.7049 15.9819L25.6449 15.7535L25.6167 15.6374L25.5763 15.5252C25.5506 15.4508 25.5237 15.3764 25.4992 15.2994C25.4747 15.2224 25.4355 15.1532 25.4037 15.0789C25.374 15.0041 25.3401 14.9313 25.3021 14.8609C25.22 14.7239 25.1539 14.5712 25.0572 14.4407C25.0107 14.3729 24.969 14.3024 24.92 14.2359C24.8711 14.1693 24.8196 14.1054 24.7694 14.0414L24.6935 13.9422L24.609 13.8522C24.5527 13.7909 24.4964 13.7308 24.4401 13.6669C24.3837 13.603 24.3176 13.5534 24.2564 13.4946C24.1955 13.4354 24.1318 13.3797 24.0654 13.3276C23.9331 13.2181 23.795 13.117 23.6515 13.0249L23.4311 12.8813C23.354 12.8422 23.2769 12.8004 23.1973 12.7586C23.0378 12.6749 22.8743 12.6 22.7075 12.5342C22.6227 12.4976 22.5361 12.4662 22.4479 12.4402C22.361 12.4115 22.2728 12.3802 22.1822 12.3476Z" fill="#FDBC0B"/>
<path d="M9.52812 11.6934C9.52812 11.6934 5.63812 12.2584 4.68797 15.2781C3.75986 18.2273 4.93285 21.2222 7.7172 22.5036C10.7525 23.8986 16.069 22.1122 19.168 16.6235L20.0104 17.6975L21.1491 13.5816L17.7281 15.7231L18.8399 16.3168C18.8399 16.3168 13.7805 22.9251 8.32818 20.7641C7.68346 20.4815 7.13628 19.9937 6.76133 19.3673C6.38639 18.7409 6.20195 18.0065 6.23319 17.2642C6.28095 14.5799 8.26696 13.7082 10.0877 13.3989L10.0069 13.2058" fill="#9635F0"/>
<path d="M20.0769 10.7063C20.0769 10.7063 18.3064 7.22854 13.983 7.81708C9.65952 8.40562 7.90492 12.3531 11.1423 14.3249C11.1423 14.3249 9.17097 10.3383 14.3368 8.99937C17.5987 8.15506 20.0769 10.7063 20.0769 10.7063Z" fill="#FF006E"/>
</svg>
